<svg xmlns="http://www.w3.org/2000/svg" viewBox="0 0 240 240">
  <defs>
    <linearGradient id="botbg" x1="0" y1="0" x2="1" y2="1">
      <stop offset="0%" stop-color="#2a1206"/>
      <stop offset="100%" stop-color="#140904"/>
    </linearGradient>
    <filter id="glow" x="-50%" y="-50%" width="200%" height="200%">
      <feGaussianBlur stdDeviation="4" result="blur"/>
      <feMerge><feMergeNode in="blur"/><feMergeNode in="SourceGraphic"/></feMerge>
    </filter>
  </defs>
  <rect width="240" height="240" rx="28" fill="url(#botbg)"/>
  <g filter="url(#glow)">
    <circle cx="120" cy="22" r="7" fill="#1fffb1"/>
    <rect x="117" y="22" width="6" height="18" rx="3" fill="#ca6b1e"/>
    <rect x="65" y="42" width="110" height="78" rx="18" fill="#ca6b1e"/>
    <rect x="76" y="53" width="88" height="56" rx="12" fill="#1c170f"/>
    <rect x="88" y="67" width="26" height="16" rx="8" fill="#1fffb1"/>
    <rect x="126" y="67" width="26" height="16" rx="8" fill="#1fffb1"/>
    <rect x="94" y="90" width="52" height="6" rx="3" fill="#1fffb1"/>
    <rect x="89" y="120" width="62" height="14" rx="7" fill="#ca6b1e"/>
    <circle cx="78" cy="80" r="4" fill="#ca6b1e"/>
    <circle cx="162" cy="80" r="4" fill="#ca6b1e"/>
    <rect x="94" y="136" width="52" height="45" rx="10" fill="#ca6b1e"/>
    <rect x="102" y="145" width="10" height="10" rx="5" fill="#1fffb1"/>
    <rect x="116" y="145" width="10" height="10" rx="5" fill="#ff9a3d"/>
    <rect x="130" y="145" width="10" height="10" rx="5" fill="#ff7b4f"/>
    <rect x="102" y="160" width="36" height="3" rx="1.5" fill="#1fffb1" opacity="0.9"/>
    <rect x="102" y="167" width="28" height="3" rx="1.5" fill="#1fffb1" opacity="0.7"/>
    <rect x="100" y="181" width="6" height="24" rx="3" fill="#ca6b1e"/>
    <rect x="134" y="181" width="6" height="24" rx="3" fill="#ca6b1e"/>
    <rect x="60" y="138" width="34" height="8" rx="4" fill="#ca6b1e"/>
    <rect x="146" y="138" width="34" height="8" rx="4" fill="#ca6b1e"/>
    <rect x="48" y="142" width="24" height="8" rx="4" fill="#ca6b1e"/>
    <rect x="168" y="142" width="24" height="8" rx="4" fill="#ca6b1e"/>
  </g>
</svg>